<?xml version="1.0" encoding="utf-8"?><svg viewBox="0 0 31 31" xmlns="http://www.w3.org/2000/svg" xmlns:xlink="http://www.w3.org/1999/xlink"><style>:root>svg{display:none}:root>svg:target{display:block}</style><svg fill="none" viewBox="0 0 8 14" id="arrow-left" xmlns="http://www.w3.org/2000/svg"><path d="M7 13L1 6.93 6.862 1" stroke="#D3D3D3" stroke-width="1.5" stroke-linecap="round" stroke-linejoin="round"/></svg><svg fill="none" viewBox="0 0 18 18" id="cart" xmlns="http://www.w3.org/2000/svg"><path d="M6.333 16.333a1.333 1.333 0 100-2.666 1.333 1.333 0 000 2.666zM14.333 16.333a1.333 1.333 0 100-2.666 1.333 1.333 0 000 2.666zM4.78 5h11.553l-1.12 5.593a1.334 1.334 0 01-1.333 1.074H6.833a1.334 1.334 0 01-1.333-1.16l-1.013-7.68a1.333 1.333 0 00-1.32-1.16h-1.5" stroke="#fff" stroke-width="1.8" stroke-linecap="round" stroke-linejoin="round"/></svg><svg fill="none" viewBox="0 0 31 31" id="cart-big" xmlns="http://www.w3.org/2000/svg"><path d="M10.667 28.792a2.417 2.417 0 100-4.834 2.417 2.417 0 000 4.834zM25.167 28.792a2.417 2.417 0 100-4.834 2.417 2.417 0 000 4.834zM7.851 8.25h20.94l-2.03 10.138a2.417 2.417 0 01-2.416 1.945H11.573a2.417 2.417 0 01-2.417-2.102L7.32 4.31a2.417 2.417 0 00-2.392-2.103H2.208" stroke="#3F3F3F" stroke-width="2.8" stroke-linecap="round" stroke-linejoin="round"/></svg><svg viewBox="0 0 16 16" id="cross" xmlns="http://www.w3.org/2000/svg"><path d="M11.748 9.956L9.499 7.707l2.249-2.248a1.06 1.06 0 00-1.5-1.5L8 6.21l-2.248-2.25a1.06 1.06 0 00-1.5 1.5l2.25 2.248-2.25 2.249a1.06 1.06 0 001.5 1.499L8 9.206l2.249 2.249a1.06 1.06 0 001.499-1.5z"/></svg><svg viewBox="0 0 10 2" id="minus" xmlns="http://www.w3.org/2000/svg"><path d="M4.04.04h4.8a.96.96 0 010 1.92H1.16a.96.96 0 010-1.92h2.88z"/></svg><svg viewBox="0 0 12 12" id="plus" xmlns="http://www.w3.org/2000/svg"><path d="M10.8 4.8H7.2V1.2a1.2 1.2 0 00-2.4 0v3.6H1.2a1.2 1.2 0 000 2.4h3.6v3.6a1.2 1.2 0 002.4 0V7.2h3.6a1.2 1.2 0 000-2.4z"/></svg><svg viewBox="0 0 10 6" id="sort-arrow-down" xmlns="http://www.w3.org/2000/svg"><path d="M10 5a.6.6 0 01-.186.44.6.6 0 01-.439.185H.625a.6.6 0 01-.44-.186A.6.6 0 010 5a.6.6 0 01.186-.44L4.56.187A.6.6 0 015 0a.6.6 0 01.44.186L9.813 4.56A.6.6 0 0110 5z"/></svg><svg fill="none" viewBox="0 0 20 20" id="trash" xmlns="http://www.w3.org/2000/svg"><path d="M2.5 5h15M6.667 5V3.333a1.667 1.667 0 011.666-1.666h3.334a1.666 1.666 0 011.666 1.666V5m2.5 0v11.667a1.667 1.667 0 01-1.666 1.666H5.833a1.667 1.667 0 01-1.666-1.666V5h11.666zM8.333 9.167v5M11.667 9.167v5" stroke="#B6B6B6" stroke-width="1.2" stroke-linecap="round" stroke-linejoin="round"/></svg></svg>